<svg width="86" height="47" viewBox="0 0 86 47" fill="none" xmlns="http://www.w3.org/2000/svg">
<path d="M85.2531 0.862865V46.2764L0.398682 46.2764L0.398682 0.862865L85.2531 0.862865ZM84.6202 45.6435V1.49578L1.03159 1.49578L1.03159 45.6435L84.6202 45.6435ZM82.2151 4.53375C82.2151 5.39451 81.5147 6.09493 80.654 6.09493C79.7932 6.09493 79.0928 5.39451 79.0928 4.53375C79.0928 3.67299 79.7932 2.97257 80.654 2.97257C81.5126 2.97257 82.2151 3.67299 82.2151 4.53375ZM79.7236 4.53375C79.7236 5.04641 80.1413 5.46202 80.6518 5.46202C81.1645 5.46202 81.5801 5.0443 81.5801 4.53375C81.5801 4.02109 81.1624 3.60548 80.6518 3.60548C80.1413 3.60548 79.7236 4.02109 79.7236 4.53375ZM82.2151 42.0886C82.2151 42.9494 81.5147 43.6498 80.654 43.6498C79.7932 43.6498 79.0928 42.9494 79.0928 42.0886C79.0928 41.2278 79.7932 40.5274 80.654 40.5274C81.5126 40.5274 82.2151 41.2278 82.2151 42.0886ZM79.7236 42.0886C79.7236 42.6013 80.1413 43.0169 80.6518 43.0169C81.1645 43.0169 81.5801 42.5992 81.5801 42.0886C81.5801 41.5759 81.1624 41.1603 80.6518 41.1603C80.1413 41.1603 79.7236 41.5781 79.7236 42.0886ZM78.9873 12.0232C78.9873 13.0696 78.5822 14.0506 77.8459 14.7869L76.9029 15.73C78.1392 18.1793 78.7658 20.8143 78.7658 23.5696C78.7658 26.3249 78.1392 28.962 76.9029 31.4093L77.8459 32.3523C78.5822 33.0886 78.9873 34.0696 78.9873 35.116C78.9873 36.1624 78.5822 37.1435 77.8459 37.8797L75.6307 40.0949C74.1075 41.6181 71.6265 41.6181 70.1033 40.0949L69.1603 39.1519C66.713 40.3882 64.0759 41.0148 61.3206 41.0148C58.5653 41.0148 55.9282 40.3882 53.481 39.1519L52.5379 40.0949C51.8016 40.8312 50.8206 41.2363 49.7742 41.2363C48.7278 41.2363 47.7468 40.8312 47.0105 40.0949L44.7953 37.8797C43.2721 36.3565 43.2721 33.8755 44.7953 32.3523L45.7383 31.4093C44.5021 28.962 43.8755 26.3249 43.8755 23.5696C43.8755 20.8143 44.5021 18.1772 45.7383 15.73L44.7953 14.7869C43.2721 13.2637 43.2721 10.7827 44.7953 9.25949L47.0105 7.0443C47.7468 6.30801 48.7278 5.90295 49.7742 5.90295C50.8206 5.90295 51.8016 6.30801 52.5379 7.0443L53.481 7.98734C55.9303 6.75105 58.5653 6.12447 61.3206 6.12447C64.0759 6.12447 66.713 6.75105 69.1603 7.98734L70.1033 7.0443C71.6265 5.52109 74.1075 5.52109 75.6307 7.0443L77.8459 9.25949C78.5822 9.99578 78.9873 10.9768 78.9873 12.0232ZM76.1307 15.6097L77.4008 14.3397C78.0168 13.7236 78.3565 12.9008 78.3565 12.0232C78.3565 11.1456 78.0168 10.3228 77.4008 9.70675L75.1856 7.49156C73.9092 6.21519 71.8312 6.21519 70.5527 7.49156L69.2826 8.7616L69.0759 8.654C66.6603 7.39662 64.0506 6.75738 61.3206 6.75738C58.5907 6.75738 55.981 7.39451 53.5653 8.654L53.3586 8.7616L52.0886 7.49156C51.4725 6.87553 50.6497 6.53586 49.7721 6.53586C48.8945 6.53586 48.0717 6.87553 47.4556 7.49156L45.2405 9.70675C43.9641 10.9831 43.9641 13.0612 45.2405 14.3397L46.5105 15.6097L46.4029 15.8165C45.1455 18.2321 44.5063 20.8397 44.5063 23.5717C44.5063 26.3038 45.1434 28.9114 46.4029 31.327L46.5105 31.5338L45.2405 32.8038C44.6244 33.4198 44.2848 34.2426 44.2848 35.1202C44.2848 35.9979 44.6244 36.8207 45.2405 37.4367L47.4556 39.6519C48.732 40.9283 50.8101 40.9283 52.0886 39.6519L53.3586 38.3819L53.5653 38.4894C55.981 39.7468 58.5886 40.3861 61.3206 40.3861C64.0527 40.3861 66.6603 39.7489 69.0759 38.4894L69.2826 38.3819L70.5527 39.6519C71.8291 40.9283 73.9071 40.9283 75.1856 39.6519L77.4008 37.4367C78.0168 36.8207 78.3565 35.9979 78.3565 35.1202C78.3565 34.2426 78.0168 33.4198 77.4008 32.8038L76.1307 31.5338L76.2383 31.327C77.4957 28.9114 78.135 26.3017 78.135 23.5717C78.135 20.8418 77.4978 18.2321 76.2383 15.8165L76.1307 15.6097ZM43.1877 4.53375C43.1877 5.39451 42.4873 6.09493 41.6265 6.09493C40.7658 6.09493 40.0653 5.39451 40.0653 4.53375C40.0653 3.67299 40.7658 2.97257 41.6265 2.97257C42.4873 2.97257 43.1877 3.67299 43.1877 4.53375ZM40.6961 4.53375C40.6961 5.04641 41.1139 5.46202 41.6244 5.46202C42.135 5.46202 42.5527 5.0443 42.5527 4.53375C42.5527 4.02109 42.135 3.60548 41.6244 3.60548C41.1139 3.60548 40.6961 4.02109 40.6961 4.53375ZM43.1877 42.0886C43.1877 42.9494 42.4873 43.6498 41.6265 43.6498C40.7658 43.6498 40.0653 42.9494 40.0653 42.0886C40.0653 41.2278 40.7658 40.5274 41.6265 40.5274C42.4873 40.5274 43.1877 41.2278 43.1877 42.0886ZM40.6961 42.0886C40.6961 42.6013 41.1139 43.0169 41.6244 43.0169C42.135 43.0169 42.5527 42.5992 42.5527 42.0886C42.5527 41.5759 42.135 41.1603 41.6244 41.1603C41.1139 41.1603 40.6961 41.5781 40.6961 42.0886ZM40.7721 12.0232C40.7721 13.0696 40.367 14.0506 39.6307 14.7869L38.6877 15.73C39.924 18.1793 40.5506 20.8143 40.5506 23.5696C40.5506 26.3249 39.924 28.962 38.6877 31.4093L39.6307 32.3523C40.367 33.0886 40.7721 34.0696 40.7721 35.116C40.7721 36.1624 40.367 37.1435 39.6307 37.8797L37.4156 40.0949C35.8923 41.6181 33.4113 41.6181 31.8881 40.0949L30.9451 39.1519C28.4978 40.3882 25.8607 41.0148 23.1054 41.0148C20.3502 41.0148 17.713 40.3882 15.2658 39.1519L14.3227 40.0949C13.5864 40.8312 12.6054 41.2363 11.559 41.2363C10.5126 41.2363 9.53159 40.8312 8.79531 40.0949L6.58012 37.8797C5.84383 37.1435 5.43877 36.1624 5.43877 35.116C5.43877 34.0696 5.84383 33.0886 6.58012 32.3523L7.52315 31.4093C6.28687 28.962 5.66028 26.3249 5.66028 23.5696C5.66028 20.8143 6.28687 18.1772 7.52315 15.73L6.58012 14.7869C5.05691 13.2637 5.05691 10.7827 6.58012 9.25949L8.79531 7.0443C9.53159 6.30801 10.5126 5.90295 11.559 5.90295C12.6054 5.90295 13.5864 6.30801 14.3227 7.0443L15.2658 7.98734C17.7151 6.75105 20.3502 6.12447 23.1054 6.12447C25.8607 6.12447 28.4978 6.75105 30.9451 7.98734L31.8881 7.0443C33.4113 5.52109 35.8923 5.52109 37.4156 7.0443L39.6307 9.25949C40.367 9.99578 40.7721 10.9768 40.7721 12.0232ZM37.9134 15.6097L39.1835 14.3397C39.7995 13.7236 40.1392 12.9008 40.1392 12.0232C40.1392 11.1456 39.7995 10.3228 39.1835 9.70675L36.9683 7.49156C35.6919 6.21519 33.6139 6.21519 32.3354 7.49156L31.0653 8.7616L30.8586 8.654C28.443 7.39662 25.8333 6.75738 23.1033 6.75738C20.3734 6.75738 17.7637 7.39451 15.348 8.654L15.1413 8.7616L13.8713 7.49156C13.2552 6.87553 12.4324 6.53586 11.5548 6.53586C10.6772 6.53586 9.85438 6.87553 9.23834 7.49156L7.02315 9.70675C5.74678 10.9831 5.74678 13.0612 7.02315 14.3397L8.2932 15.6097L8.1856 15.8165C6.92822 18.2321 6.28898 20.8397 6.28898 23.5717C6.28898 26.3038 6.92611 28.9114 8.1856 31.327L8.2932 31.5338L7.02315 32.8038C6.40712 33.4198 6.06746 34.2426 6.06746 35.1202C6.06746 35.9979 6.40712 36.8207 7.02315 37.4367L9.23834 39.6519C9.85438 40.2679 10.6772 40.6076 11.5548 40.6076C12.4324 40.6076 13.2552 40.2679 13.8713 39.6519L15.1413 38.3819L15.348 38.4894C17.7637 39.7468 20.3713 40.3861 23.1033 40.3861C25.8354 40.3861 28.443 39.7489 30.8586 38.4894L31.0653 38.3819L32.3354 39.6519C33.6118 40.9283 35.6898 40.9283 36.9683 39.6519L39.1835 37.4367C39.7995 36.8207 40.1392 35.9979 40.1392 35.1202C40.1392 34.2426 39.7995 33.4198 39.1835 32.8038L37.9134 31.5338L38.021 31.327C39.2784 28.9114 39.9177 26.3017 39.9177 23.5717C39.9177 20.8418 39.2805 18.2321 38.021 15.8165L37.9134 15.6097ZM5.63497 4.53375C5.63497 5.39451 4.93455 6.09493 4.07379 6.09493C3.21303 6.09493 2.51261 5.39451 2.51261 4.53375C2.51261 3.67299 3.21303 2.97257 4.07379 2.97257C4.93455 2.97257 5.63497 3.67299 5.63497 4.53375ZM3.14341 4.53375C3.14341 5.04641 3.56113 5.46202 4.07168 5.46202C4.58223 5.46202 4.99995 5.0443 4.99995 4.53375C4.99995 4.02109 4.58223 3.60548 4.07168 3.60548C3.56113 3.60548 3.14341 4.02109 3.14341 4.53375ZM5.63497 42.0886C5.63497 42.9494 4.93455 43.6498 4.07379 43.6498C3.21303 43.6498 2.51261 42.9494 2.51261 42.0886C2.51261 41.2278 3.21303 40.5274 4.07379 40.5274C4.93455 40.5274 5.63497 41.2278 5.63497 42.0886ZM3.14341 42.0886C3.14341 42.6013 3.56113 43.0169 4.07168 43.0169C4.58223 43.0169 4.99995 42.5992 4.99995 42.0886C4.99995 41.5759 4.58223 41.1603 4.07168 41.1603C3.56113 41.1603 3.14341 41.5781 3.14341 42.0886Z" fill="black"/>
</svg>
