<svg width="67" height="46" viewBox="0 0 67 46" fill="none" xmlns="http://www.w3.org/2000/svg">
<path d="M66.6993 0.322926V45.1688L0.851196 45.1688L0.851196 0.322926L66.6993 0.322926ZM66.0666 44.5438V0.947926L1.48393 0.947926L1.48393 44.5438L66.0666 44.5438ZM63.6622 3.95001C63.6622 4.80001 62.962 5.49168 62.1015 5.49168C61.241 5.49168 60.5408 4.80001 60.5408 3.95001C60.5408 3.10001 61.241 2.40834 62.1015 2.40834C62.962 2.40626 63.6622 3.09793 63.6622 3.95001ZM61.1714 3.95001C61.1714 4.45626 61.589 4.86668 62.0994 4.86668C62.6119 4.86668 63.0274 4.45417 63.0274 3.95001C63.0274 3.44376 62.6098 3.03334 62.0994 3.03334C61.589 3.03126 61.1714 3.44376 61.1714 3.95001ZM63.6622 41.0354C63.6622 41.8854 62.962 42.5771 62.1015 42.5771C61.241 42.5771 60.5408 41.8854 60.5408 41.0354C60.5408 40.1854 61.241 39.4938 62.1015 39.4938C62.962 39.4917 63.6622 40.1833 63.6622 41.0354ZM61.1714 41.0354C61.1714 41.5417 61.589 41.9521 62.0994 41.9521C62.6119 41.9521 63.0274 41.5396 63.0274 41.0354C63.0274 40.5292 62.6098 40.1188 62.0994 40.1188C61.589 40.1167 61.1714 40.5292 61.1714 41.0354ZM60.4353 11.3458C60.4353 12.3792 60.0304 13.3479 59.2943 14.075L58.3515 15.0063C59.5875 17.425 60.2139 20.0271 60.2139 22.7479C60.2139 25.4688 59.5875 28.0729 58.3515 30.4896L59.2943 31.4208C60.0304 32.1479 60.4353 33.1167 60.4353 34.15C60.4353 35.1833 60.0304 36.1521 59.2943 36.8792L57.0797 39.0667C55.557 40.5708 53.0767 40.5708 51.5539 39.0667L50.6111 38.1354C48.1646 39.3563 45.5282 39.975 42.7737 39.975C40.0193 39.975 37.3829 39.3563 34.9363 38.1375L33.9936 39.0688C33.2575 39.7958 32.2768 40.1958 31.2306 40.1958C30.1845 40.1958 29.2038 39.7958 28.4677 39.0688L26.2532 36.8813C25.5171 36.1542 25.1122 35.1854 25.1122 34.1521C25.1122 33.1188 25.5171 32.15 26.2532 31.4229L27.1959 30.4917C25.96 28.075 25.3336 25.4708 25.3336 22.75C25.3336 20.0292 25.96 17.425 27.1959 15.0083L26.2532 14.0771C24.7304 12.5729 24.7304 10.1229 26.2532 8.61876L28.4677 6.43126C29.2038 5.70418 30.1845 5.30418 31.2306 5.30418C32.2768 5.30418 33.2575 5.70418 33.9936 6.43126L34.9363 7.36251C37.385 6.14168 40.0193 5.52293 42.7737 5.52293C45.5282 5.52293 48.1646 6.14168 50.6111 7.36251L51.5539 6.43126C52.29 5.70418 53.2707 5.30418 54.3168 5.30418C55.3629 5.30418 56.3437 5.70418 57.0797 6.43126L59.2943 8.61876C60.0304 9.34167 60.4353 10.3104 60.4353 11.3458ZM57.5796 14.8854L58.8493 13.6313C59.4651 13.0229 59.8047 12.2104 59.8047 11.3438C59.8047 10.4771 59.4651 9.66459 58.8493 9.05626L56.6347 6.86876C56.0189 6.26043 55.1963 5.92501 54.3189 5.92501C53.4416 5.92501 52.619 6.26043 52.0032 6.86876L50.7335 8.12292L50.5268 8.01668C48.1119 6.77501 45.5029 6.14376 42.7737 6.14376C40.0446 6.14376 37.4356 6.77293 35.0207 8.01668L34.814 8.12292L33.5443 6.86876C32.9285 6.26043 32.1059 5.92501 31.2285 5.92501C30.3512 5.92501 29.5286 6.26043 28.9127 6.86876L26.6982 9.05626C25.4222 10.3167 25.4222 12.3688 26.6982 13.6313L27.9679 14.8854L27.8603 15.0896C26.6033 17.475 25.9642 20.05 25.9642 22.7479C25.9642 25.4458 26.6012 28.0208 27.8603 30.4063L27.9679 30.6104L26.6982 31.8646C25.4222 33.125 25.4222 35.1771 26.6982 36.4396L28.9127 38.6271C30.1888 39.8875 32.2662 39.8875 33.5443 38.6271L34.814 37.3729L35.0207 37.4792C37.4356 38.7208 40.0425 39.3521 42.7737 39.3521C45.5029 39.3521 48.1119 38.7229 50.5268 37.4792L50.7335 37.3729L52.0032 38.6271C53.2792 39.8875 55.3566 39.8875 56.6347 38.6271L58.8493 36.4396C59.4651 35.8313 59.8047 35.0188 59.8047 34.1521C59.8047 33.2854 59.4651 32.4729 58.8493 31.8646L57.5796 30.6104L57.6872 30.4063C58.9442 28.0208 59.5833 25.4438 59.5833 22.7479C59.5833 20.0521 58.9463 17.475 57.6872 15.0896L57.5796 14.8854ZM19.4556 11.5813L19.4556 33.9104C19.4556 37.3729 16.604 40.1917 13.0966 40.1917C9.58919 40.1917 6.7398 37.375 6.7398 33.9104L6.7398 11.5813C6.7398 8.11876 9.5913 5.30001 13.0987 5.30001C16.6062 5.30001 19.4556 8.11876 19.4556 11.5813ZM7.37253 33.9104C7.37253 37.0292 9.94141 39.5667 13.0987 39.5667C16.256 39.5667 18.8249 37.0292 18.8249 33.9104L18.8249 11.5813C18.8249 8.46251 16.256 5.92501 13.0987 5.92501C9.94141 5.92501 7.37253 8.46251 7.37253 11.5813L7.37253 33.9104ZM6.08598 3.95001C6.08598 4.80001 5.38576 5.49168 4.52525 5.49168C3.66473 5.49168 2.96451 4.80001 2.96451 3.95001C2.96451 3.10001 3.66473 2.40834 4.52525 2.40834C5.38576 2.40834 6.08598 3.09793 6.08598 3.95001ZM3.59513 3.95001C3.59513 4.45626 4.01273 4.86668 4.52314 4.86668C5.03354 4.86668 5.45114 4.45417 5.45114 3.95001C5.45114 3.44376 5.03354 3.03334 4.52314 3.03334C4.01273 3.03334 3.59513 3.44376 3.59513 3.95001ZM6.08598 41.0354C6.08598 41.8854 5.38576 42.5771 4.52525 42.5771C3.66473 42.5771 2.96451 41.8854 2.96451 41.0354C2.96451 40.1854 3.66473 39.4938 4.52525 39.4938C5.38576 39.4938 6.08598 40.1833 6.08598 41.0354ZM3.59513 41.0354C3.59513 41.5417 4.01273 41.9521 4.52314 41.9521C5.03354 41.9521 5.45114 41.5396 5.45114 41.0354C5.45114 40.5292 5.03354 40.1188 4.52314 40.1188C4.01273 40.1188 3.59513 40.5292 3.59513 41.0354Z" fill="black"/>
</svg>
