<svg width="50" height="49" viewBox="0 0 50 49" fill="none" xmlns="http://www.w3.org/2000/svg">
<path d="M49.2167 48.6618H0.783203V0.338165H49.2167V48.6618ZM1.4582 47.9884H48.5417V1.01163H1.4582V47.9884ZM45.3017 45.8692C44.3837 45.8692 43.6367 45.1239 43.6367 44.208C43.6367 43.292 44.3837 42.5467 45.3017 42.5467C46.2197 42.5467 46.9667 43.292 46.9667 44.208C46.9667 45.1239 46.2197 45.8692 45.3017 45.8692ZM45.3017 43.218C44.755 43.218 44.3117 43.6624 44.3117 44.2057C44.3117 44.7512 44.7572 45.1935 45.3017 45.1935C45.8485 45.1935 46.2917 44.749 46.2917 44.2057C46.2917 43.6624 45.8485 43.218 45.3017 43.218ZM5.24945 45.8692C4.33145 45.8692 3.58445 45.1239 3.58445 44.208C3.58445 43.292 4.33145 42.5467 5.24945 42.5467C6.16745 42.5467 6.91445 43.292 6.91445 44.208C6.91445 45.1239 6.16745 45.8692 5.24945 45.8692ZM5.24945 43.218C4.7027 43.218 4.25945 43.6624 4.25945 44.2057C4.25945 44.7512 4.70495 45.1935 5.24945 45.1935C5.7962 45.1935 6.23945 44.749 6.23945 44.2057C6.23945 43.6624 5.79395 43.218 5.24945 43.218ZM37.3142 43.301C36.2477 43.301 35.179 42.8947 34.3667 42.0843L33.361 41.0808C30.751 42.3963 27.9385 43.0631 25 43.0631C22.0615 43.0631 19.249 42.3963 16.639 41.0808L15.6332 42.0843C14.0087 43.7051 11.3627 43.7051 9.7382 42.0843L7.3757 39.7271C5.7512 38.1063 5.7512 35.4663 7.3757 33.8455L8.38145 32.842C7.06295 30.2357 6.3947 27.4318 6.3947 24.5C6.3947 21.5682 7.06295 18.762 8.38145 16.158L7.3757 15.1545C5.7512 13.5337 5.7512 10.8937 7.3757 9.27286L9.7382 6.91572C11.3627 5.2949 14.0087 5.2949 15.6332 6.91572L16.639 7.91919C19.2512 6.60367 22.0615 5.93694 25 5.93694C27.9385 5.93694 30.751 6.60367 33.361 7.91919L34.3667 6.91572C35.9912 5.2949 38.6372 5.2949 40.2617 6.91572L42.6242 9.27286C44.2487 10.8937 44.2487 13.5337 42.6242 15.1545L41.6185 16.158C42.937 18.7643 43.6052 21.5682 43.6052 24.5C43.6052 27.4318 42.937 30.238 41.6185 32.842L42.6242 33.8455C43.4095 34.629 43.8415 35.6729 43.8415 36.7863C43.8415 37.8998 43.4095 38.9437 42.6242 39.7271L40.2617 42.0843C39.4472 42.8947 38.3807 43.301 37.3142 43.301ZM33.4892 40.2569L34.8437 41.6084C36.205 42.9665 38.4212 42.9665 39.7847 41.6084L42.1472 39.2512C42.8042 38.5957 43.1665 37.7202 43.1665 36.7863C43.1665 35.8524 42.8042 34.9769 42.1472 34.3214L40.7927 32.97L40.9075 32.75C42.2485 30.1796 42.9302 27.4027 42.9302 24.4978C42.9302 21.5929 42.2507 18.8159 40.9075 16.2455L40.7927 16.0255L42.1472 14.6741C42.8042 14.0186 43.1665 13.1431 43.1665 12.2092C43.1665 11.2753 42.8042 10.3998 42.1472 9.74429L39.7847 7.38714C38.4235 6.02898 36.2072 6.02898 34.8437 7.38714L33.4892 8.73857L33.2687 8.62408C30.6925 7.28612 27.9092 6.60592 24.9977 6.60592C22.0862 6.60592 19.303 7.28388 16.7267 8.62408L16.5062 8.73857L15.1517 7.38714C13.7905 6.02898 11.5742 6.02898 10.2107 7.38714L7.8482 9.74429C6.48695 11.1025 6.48695 13.3137 7.8482 14.6741L9.2027 16.0255L9.08795 16.2455C7.74695 18.8159 7.0652 21.5906 7.0652 24.4978C7.0652 27.4027 7.7447 30.1796 9.08795 32.75L9.2027 32.97L7.8482 34.3214C7.1912 34.9769 6.82895 35.8524 6.82895 36.7863C6.82895 37.7202 7.1912 38.5957 7.8482 39.2512L10.2107 41.6084C11.572 42.9665 13.7882 42.9665 15.1517 41.6084L16.5062 40.2569L16.7267 40.3714C19.303 41.7094 22.084 42.3896 24.9977 42.3896C27.9115 42.3896 30.6925 41.7116 33.2687 40.3714L33.4892 40.2569ZM45.3017 5.91C44.3837 5.91 43.6367 5.1647 43.6367 4.24878C43.6367 3.33286 44.3837 2.58755 45.3017 2.58755C46.2197 2.58755 46.9667 3.33286 46.9667 4.24878C46.9667 5.1647 46.2197 5.91 45.3017 5.91ZM45.3017 3.25878C44.755 3.25878 44.3117 3.70327 44.3117 4.24653C44.3117 4.79204 44.7572 5.23429 45.3017 5.23429C45.8485 5.23429 46.2917 4.7898 46.2917 4.24653C46.2917 3.70327 45.8485 3.25878 45.3017 3.25878ZM5.24945 5.91C4.33145 5.91 3.58445 5.1647 3.58445 4.24878C3.58445 3.33286 4.33145 2.58755 5.24945 2.58755C6.16745 2.58755 6.91445 3.33286 6.91445 4.24878C6.91445 5.1647 6.16745 5.91 5.24945 5.91ZM5.24945 3.25878C4.7027 3.25878 4.25945 3.70327 4.25945 4.24653C4.25945 4.79204 4.70495 5.23429 5.24945 5.23429C5.7962 5.23429 6.23945 4.7898 6.23945 4.24653C6.23945 3.70327 5.79395 3.25878 5.24945 3.25878Z" fill="black"/>
</svg>
