<svg width="63" height="21" viewBox="0 0 63 21" fill="none" xmlns="http://www.w3.org/2000/svg">
<g clip-path="url(#clip0_4_30)">
<path d="M4.32142 0.970373L0.765143 2.03567L0.495728 20.2511C0.495728 20.2511 8.14711 20.4621 8.19022 20.2933C8.23333 20.1246 8.45963 14.4184 8.45963 14.4184L12.8565 20.1246L21.2515 19.998L13.5031 9.14466L19.5919 2.89001C19.5919 2.89001 17.2857 0.759423 17.1132 0.801613C16.9408 0.843803 11.6818 2.28881 11.6818 2.28881L8.41653 5.27374L8.28721 2.16224L4.32142 0.970373Z" fill="#E83943"/>
<path d="M1.10999 1.95128L4.32141 0.970367L7.58672 1.95128L4.59083 3.14314L1.10999 1.95128Z" fill="#EC6162"/>
<path d="M4.27831 9.52435C4.49384 9.39778 8.40574 5.26317 8.40574 5.26317L8.27642 2.15167L4.58005 3.13259L4.27831 9.52435Z" fill="#CE1531"/>
<path d="M16.9516 1.23404C16.7792 1.36061 4.38608 13.5324 4.38608 13.5324V20.0296L8.0609 20.3355L8.31954 14.4606L10.8089 12.2034L16.693 20.0718L21.1114 20.0402L13.3738 9.18683L19.6565 3.18532L16.9516 1.23404Z" fill="#CE1531"/>
<path d="M22.2321 20.5886L14.1712 9.29231L20.3247 3.15369L17.3719 0.411346L11.5525 1.76142L8.87992 4.40883V1.77197L4.41841 0.421894L0 1.77197V20.6203H8.80448V15.2305L12.4685 20.5886H22.2321ZM9.23555 14.1336L10.8844 12.6042L15.82 19.6288H12.9966L9.23555 14.1336ZM4.91413 8.35359V3.70215L7.89925 2.78453V5.3792L4.91413 8.35359ZM4.41841 1.43445L6.73537 2.13058L4.42918 2.83726L2.10144 2.13058L4.41841 1.43445ZM0.980671 2.80562L3.93346 3.70215V10.6951L12.0482 2.63686L15.7446 1.78252L4.03045 13.3847V19.671H0.980671V2.80562ZM7.82381 19.671H5.01112V13.7644L17.2641 1.63485L18.9237 3.18533L12.8996 9.19738L20.357 19.6288H17.0163L11.0568 11.1276L7.84537 14.1125L7.82381 19.671Z" fill="#1D1D1B"/>
<path d="M27.1463 5.91712C27.0708 5.83274 26.9523 5.78 26.8337 5.78H26.0039C25.8207 5.78 25.6483 5.89602 25.5944 6.06478L23.8917 10.1572V6.1808C23.9025 5.96985 23.7301 5.80109 23.5145 5.79055C23.5038 5.79055 23.493 5.79055 23.4822 5.79055H22.6524C22.4369 5.78 22.2537 5.93821 22.2429 6.14916C22.2429 6.15971 22.2429 6.17025 22.2429 6.1808V14.9036C22.2321 15.1145 22.4046 15.2938 22.6201 15.3044C22.6309 15.3044 22.6416 15.3044 22.6524 15.3044H23.4822C23.6978 15.3149 23.881 15.1461 23.881 14.9352C23.881 14.9246 23.881 14.9141 23.881 14.9036V10.9272L25.5082 14.9457C25.519 15.1567 25.7022 15.3149 25.9177 15.3044H26.7475C26.9631 15.3149 27.1463 15.1461 27.157 14.9352C27.157 14.9246 27.157 14.9141 27.157 14.9036V14.8614L25.4005 10.442L27.2109 6.28628L27.2217 6.25463C27.254 6.13861 27.2217 6.01204 27.1463 5.91712Z" fill="#1D1D1B"/>
<path d="M30.3685 5.65344C28.8597 5.65344 27.7928 6.75038 27.7928 8.3114V12.773C27.7928 14.334 28.849 15.4309 30.3685 15.4309C31.8556 15.4309 32.9225 14.3551 32.9225 12.8574V8.22702C32.9333 6.73983 31.8556 5.65344 30.3685 5.65344ZM31.2737 12.9206C31.2737 13.5219 30.9181 13.9016 30.3792 13.9016C29.8404 13.9016 29.4632 13.4902 29.4632 12.8257V8.26921C29.4632 7.60472 29.8081 7.19337 30.3792 7.19337C30.9504 7.19337 31.2737 7.58363 31.2737 8.17429V12.9206Z" fill="#1D1D1B"/>
<path d="M39.4962 5.64291C38.8928 5.63236 38.3216 5.8855 37.9336 6.32849C37.5457 5.87495 36.9745 5.63236 36.371 5.64291C34.9162 5.64291 33.9894 6.67656 33.9894 8.27977V14.9036C33.9786 15.1145 34.1403 15.2938 34.3558 15.3044C34.3666 15.3044 34.3774 15.3044 34.3881 15.3044H35.2179C35.4335 15.3149 35.6167 15.1462 35.6167 14.9352C35.6167 14.9247 35.6167 14.9141 35.6167 14.9036V8.22704C35.6167 7.5309 35.8645 7.19339 36.371 7.19339C36.8344 7.19339 37.1038 7.58364 37.1038 8.22704V14.9036C37.0931 15.1145 37.2547 15.2938 37.4702 15.3044C37.481 15.3044 37.4918 15.3044 37.5026 15.3044H38.3324C38.5479 15.3149 38.7311 15.1462 38.7311 14.9352C38.7311 14.9247 38.7311 14.9141 38.7311 14.9036V8.22704C38.7311 7.57309 39.0005 7.19339 39.4855 7.19339C40.0997 7.19339 40.2183 7.7524 40.2183 8.22704V14.9036C40.2075 15.1145 40.3691 15.2938 40.5847 15.3044C40.5955 15.3044 40.6062 15.3044 40.617 15.3044H41.4468C41.6623 15.3149 41.8455 15.1462 41.8563 14.9352C41.8563 14.9247 41.8563 14.9141 41.8563 14.9036V8.27977C41.8886 6.67656 40.9511 5.64291 39.4962 5.64291Z" fill="#1D1D1B"/>
<path d="M44.3134 5.79055H43.4836C43.268 5.78 43.0848 5.93821 43.0741 6.14916C43.0741 6.15971 43.0741 6.17025 43.0741 6.1808V12.8046C43.0633 13.0156 43.2357 13.1949 43.4513 13.2054C43.462 13.2054 43.4728 13.2054 43.4836 13.2054H44.3134C44.5289 13.216 44.7121 13.0472 44.7121 12.8363C44.7121 12.8257 44.7121 12.8152 44.7121 12.8046V6.1808C44.7229 5.96985 44.5612 5.79055 44.3457 5.78C44.3349 5.79055 44.3242 5.79055 44.3134 5.79055Z" fill="#CE1531"/>
<path d="M48.4408 5.61124C46.9536 5.61124 45.9514 6.65544 45.9514 8.21646V12.7624C45.9406 12.9734 46.1023 13.1527 46.3178 13.1632C46.3286 13.1632 46.3394 13.1632 46.3502 13.1632H47.2015C47.417 13.1738 47.6002 13.005 47.6002 12.7941C47.6002 12.7835 47.6002 12.773 47.6002 12.7624V8.16372C47.6002 7.53087 47.9128 7.15117 48.4408 7.15117C48.9689 7.15117 49.2814 7.53087 49.2814 8.16372V12.7624C49.2706 12.9734 49.443 13.1632 49.6693 13.1632C49.6801 13.1632 49.6909 13.1632 49.7017 13.1632H50.5315C50.747 13.1738 50.9302 13.005 50.941 12.7941C50.941 12.7835 50.941 12.773 50.941 12.7624V8.21646C50.941 6.65544 49.9388 5.61124 48.4408 5.61124Z" fill="#CE1531"/>
<path d="M56.6526 5.79055H55.8228C55.6073 5.78 55.4133 5.94876 55.4133 6.17025C55.4133 6.1808 55.4133 6.19135 55.4133 6.2019V12.8995C55.4133 13.5324 55.1008 13.9121 54.5727 13.9121C54.0446 13.9121 53.7321 13.5324 53.7321 12.8995V6.19135C53.7429 5.9804 53.5813 5.80109 53.3657 5.79055C53.3549 5.79055 53.3442 5.79055 53.3334 5.79055H52.482C52.2665 5.78 52.0833 5.94876 52.0833 6.15971C52.0833 6.17026 52.0833 6.1808 52.0833 6.19135V12.8363C52.0833 14.3973 53.0855 15.4415 54.5727 15.4415C56.0599 15.4415 57.0837 14.3973 57.0837 12.8363V6.19135C57.0944 5.9804 56.9328 5.79055 56.7065 5.78C56.6741 5.79055 56.6634 5.79055 56.6526 5.79055Z" fill="#1D1D1B"/>
<path d="M61.0279 9.84077L60.9524 9.92515L61.0279 9.84077C60.2951 9.21847 59.6593 8.68055 59.6593 7.94223C59.6593 7.4254 59.9071 7.18281 60.4352 7.18281C60.7585 7.18281 61.1788 7.30938 61.2219 8.35358C61.2111 8.56453 61.3835 8.74384 61.599 8.74384C61.6098 8.74384 61.6206 8.74384 61.6206 8.74384H62.4504C62.5582 8.74384 62.6659 8.7122 62.7414 8.63836C62.8168 8.56453 62.8599 8.45906 62.8491 8.34303C62.7952 6.69763 61.8361 5.64288 60.4136 5.64288C58.948 5.64288 57.9997 6.54997 57.9997 7.94223C57.9997 9.35559 58.9911 10.2099 59.8748 10.9588C60.6184 11.6022 61.3296 12.2034 61.3296 13.0472C61.3296 13.6273 61.0602 13.9015 60.4891 13.9015C60.1226 13.9015 59.6269 13.775 59.5946 12.6148C59.573 12.4038 59.4006 12.2456 59.1851 12.2456H58.3553C58.1398 12.235 57.9458 12.4038 57.9458 12.6148C57.9458 12.6253 57.9458 12.6464 57.9458 12.6569C57.9997 14.3445 59.0019 15.4415 60.4891 15.4415C62.0193 15.4415 63.0108 14.5028 63.0108 13.0367C63 11.5073 61.9547 10.6213 61.0279 9.84077Z" fill="#1D1D1B"/>
<path d="M50.6392 13.8488H43.4081C43.2573 13.8383 43.1172 13.9543 43.1064 14.1019C43.1064 14.1125 43.1064 14.123 43.1064 14.1441V14.9563C43.0956 15.104 43.2249 15.2305 43.3758 15.2411C43.3866 15.2411 43.3974 15.2411 43.4081 15.2411H50.6392C50.7901 15.2516 50.9194 15.1356 50.9302 14.9879C50.9302 14.9774 50.9302 14.9668 50.9302 14.9668V14.1336C50.941 13.9859 50.8224 13.8488 50.6716 13.8383C50.6608 13.8488 50.65 13.8488 50.6392 13.8488Z" fill="#CE1531"/>
</g>
<defs>
<clipPath id="clip0_4_30">
<rect width="63" height="21" fill="white"/>
</clipPath>
</defs>
</svg>
