<svg width="26" height="26" viewBox="0 0 26 26" fill="none" xmlns="http://www.w3.org/2000/svg">
<path d="M9.25 14.25H10.5V11.75H11.75C12.1042 11.75 12.4013 11.63 12.6413 11.39C12.8804 11.1508 13 10.8542 13 10.5V9.25C13 8.89583 12.8804 8.59875 12.6413 8.35875C12.4013 8.11958 12.1042 8 11.75 8H9.25V14.25ZM10.5 10.5V9.25H11.75V10.5H10.5ZM14.25 14.25H16.75C17.1042 14.25 17.4013 14.13 17.6413 13.89C17.8804 13.6508 18 13.3542 18 13V9.25C18 8.89583 17.8804 8.59875 17.6413 8.35875C17.4013 8.11958 17.1042 8 16.75 8H14.25V14.25ZM15.5 13V9.25H16.75V13H15.5ZM19.25 14.25H20.5V11.75H21.75V10.5H20.5V9.25H21.75V8H19.25V14.25ZM8 20.5C7.3125 20.5 6.72417 20.2554 6.235 19.7663C5.745 19.2763 5.5 18.6875 5.5 18V3C5.5 2.3125 5.745 1.72375 6.235 1.23375C6.72417 0.744583 7.3125 0.5 8 0.5H23C23.6875 0.5 24.2763 0.744583 24.7663 1.23375C25.2554 1.72375 25.5 2.3125 25.5 3V18C25.5 18.6875 25.2554 19.2763 24.7663 19.7663C24.2763 20.2554 23.6875 20.5 23 20.5H8ZM3 25.5C2.3125 25.5 1.72417 25.2554 1.235 24.7663C0.745 24.2763 0.5 23.6875 0.5 23V5.5H3V23H20.5V25.5H3Z" fill="#001E8D"/>
</svg>
