<svg width="25" height="25" viewBox="0 0 25 25" fill="none" xmlns="http://www.w3.org/2000/svg">
<path d="M12.625 19.7812C12.9583 19.7812 13.2396 19.6667 13.4688 19.4375C13.6979 19.2083 13.8125 18.9271 13.8125 18.5938C13.8125 18.2604 13.6979 17.9792 13.4688 17.75C13.2396 17.5208 12.9583 17.4062 12.625 17.4062C12.2917 17.4062 12.0104 17.5208 11.7812 17.75C11.5521 17.9792 11.4375 18.2604 11.4375 18.5938C11.4375 18.9271 11.5521 19.2083 11.7812 19.4375C12.0104 19.6667 12.2917 19.7812 12.625 19.7812ZM11.5312 15.2188H13.375C13.375 14.6771 13.4427 14.1823 13.5781 13.7344C13.7135 13.2865 14.1354 12.7708 14.8438 12.1875C15.4896 11.6458 15.9479 11.1146 16.2188 10.5938C16.4896 10.0729 16.625 9.5 16.625 8.875C16.625 7.77083 16.2656 6.88542 15.5469 6.21875C14.8281 5.55208 13.875 5.21875 12.6875 5.21875C11.6667 5.21875 10.7656 5.47396 9.98438 5.98438C9.20312 6.49479 8.63542 7.19792 8.28125 8.09375L9.9375 8.71875C10.1667 8.13542 10.5104 7.68229 10.9688 7.35938C11.4271 7.03646 11.9688 6.875 12.5938 6.875C13.3021 6.875 13.875 7.06771 14.3125 7.45312C14.75 7.83854 14.9688 8.33333 14.9688 8.9375C14.9688 9.39583 14.8333 9.82812 14.5625 10.2344C14.2917 10.6406 13.8958 11.0625 13.375 11.5C12.75 12.0417 12.2865 12.5781 11.9844 13.1094C11.6823 13.6406 11.5312 14.3438 11.5312 15.2188ZM12.5 25C10.75 25 9.11458 24.6823 7.59375 24.0469C6.07292 23.4115 4.75 22.5312 3.625 21.4062C2.5 20.2812 1.61458 18.9583 0.96875 17.4375C0.322917 15.9167 0 14.2708 0 12.5C0 10.75 0.322917 9.11458 0.96875 7.59375C1.61458 6.07292 2.5 4.75 3.625 3.625C4.75 2.5 6.07292 1.61458 7.59375 0.96875C9.11458 0.322917 10.75 0 12.5 0C14.2292 0 15.8542 0.322917 17.375 0.96875C18.8958 1.61458 20.2188 2.5 21.3438 3.625C22.4688 4.75 23.3594 6.07292 24.0156 7.59375C24.6719 9.11458 25 10.75 25 12.5C25 14.2708 24.6719 15.9167 24.0156 17.4375C23.3594 18.9583 22.4688 20.2812 21.3438 21.4062C20.2188 22.5312 18.8958 23.4115 17.375 24.0469C15.8542 24.6823 14.2292 25 12.5 25ZM12.5 23.125C15.4375 23.125 17.9427 22.0833 20.0156 20C22.0885 17.9167 23.125 15.4167 23.125 12.5C23.125 9.58333 22.0885 7.08333 20.0156 5C17.9427 2.91667 15.4375 1.875 12.5 1.875C9.52083 1.875 7.00521 2.91667 4.95312 5C2.90104 7.08333 1.875 9.58333 1.875 12.5C1.875 15.4167 2.90104 17.9167 4.95312 20C7.00521 22.0833 9.52083 23.125 12.5 23.125Z" fill="white"/>
</svg>
